<mxfile host="Electron" agent="Mozilla/5.0 (Windows NT 10.0; Win64; x64) AppleWebKit/537.36 (KHTML, like Gecko) draw.io/24.7.17 Chrome/128.0.6613.36 Electron/32.0.1 Safari/537.36" version="24.7.17">
  <diagram name="Page-1" id="JFiUc8jxxx9oMYMayQsB">
    <mxGraphModel dx="472" dy="828" grid="1" gridSize="10" guides="1" tooltips="1" connect="1" arrows="1" fold="1" page="1" pageScale="1" pageWidth="850" pageHeight="1100" math="0" shadow="0">
      <root>
        <mxCell id="0" />
        <mxCell id="1" parent="0" />
        <mxCell id="f7bFWwlUYKXwFlwvoRpv-4" style="edgeStyle=orthogonalEdgeStyle;rounded=0;orthogonalLoop=1;jettySize=auto;html=1;" edge="1" parent="1" source="f7bFWwlUYKXwFlwvoRpv-2">
          <mxGeometry relative="1" as="geometry">
            <mxPoint x="250" y="210" as="targetPoint" />
          </mxGeometry>
        </mxCell>
        <mxCell id="f7bFWwlUYKXwFlwvoRpv-2" value="START" style="ellipse;whiteSpace=wrap;html=1;" vertex="1" parent="1">
          <mxGeometry x="190" y="80" width="120" height="80" as="geometry" />
        </mxCell>
        <mxCell id="f7bFWwlUYKXwFlwvoRpv-10" value="" style="edgeStyle=orthogonalEdgeStyle;rounded=0;orthogonalLoop=1;jettySize=auto;html=1;" edge="1" parent="1" source="f7bFWwlUYKXwFlwvoRpv-5" target="f7bFWwlUYKXwFlwvoRpv-9">
          <mxGeometry relative="1" as="geometry">
            <Array as="points">
              <mxPoint x="250" y="330" />
              <mxPoint x="295" y="330" />
            </Array>
          </mxGeometry>
        </mxCell>
        <mxCell id="f7bFWwlUYKXwFlwvoRpv-11" value="Indent" style="edgeLabel;html=1;align=center;verticalAlign=middle;resizable=0;points=[];" vertex="1" connectable="0" parent="f7bFWwlUYKXwFlwvoRpv-10">
          <mxGeometry x="-0.52" y="-3" relative="1" as="geometry">
            <mxPoint as="offset" />
          </mxGeometry>
        </mxCell>
        <mxCell id="f7bFWwlUYKXwFlwvoRpv-5" value="FUNCTION CollectInput()" style="rounded=0;whiteSpace=wrap;html=1;" vertex="1" parent="1">
          <mxGeometry x="190" y="230" width="120" height="60" as="geometry" />
        </mxCell>
        <mxCell id="f7bFWwlUYKXwFlwvoRpv-36" style="edgeStyle=orthogonalEdgeStyle;rounded=0;orthogonalLoop=1;jettySize=auto;html=1;exitX=0.5;exitY=1;exitDx=0;exitDy=0;" edge="1" parent="1" source="f7bFWwlUYKXwFlwvoRpv-6">
          <mxGeometry relative="1" as="geometry">
            <mxPoint x="319" y="620" as="targetPoint" />
          </mxGeometry>
        </mxCell>
        <mxCell id="f7bFWwlUYKXwFlwvoRpv-6" value="PRINT &quot;Enter projected number of hours for the job:&quot;&lt;div&gt;INPUT num_hours&lt;/div&gt;" style="shape=parallelogram;perimeter=parallelogramPerimeter;whiteSpace=wrap;html=1;fixedSize=1;" vertex="1" parent="1">
          <mxGeometry x="238" y="492" width="162" height="88" as="geometry" />
        </mxCell>
        <mxCell id="f7bFWwlUYKXwFlwvoRpv-35" style="edgeStyle=orthogonalEdgeStyle;rounded=0;orthogonalLoop=1;jettySize=auto;html=1;exitX=0.5;exitY=1;exitDx=0;exitDy=0;entryX=0.5;entryY=0;entryDx=0;entryDy=0;" edge="1" parent="1" source="f7bFWwlUYKXwFlwvoRpv-7" target="f7bFWwlUYKXwFlwvoRpv-8">
          <mxGeometry relative="1" as="geometry" />
        </mxCell>
        <mxCell id="f7bFWwlUYKXwFlwvoRpv-7" value="PRINT &quot;Enter wholesale cost of materials:&quot;&lt;div&gt;INPUT wholesale_cost&lt;/div&gt;" style="shape=parallelogram;perimeter=parallelogramPerimeter;whiteSpace=wrap;html=1;fixedSize=1;" vertex="1" parent="1">
          <mxGeometry x="238" y="630" width="152" height="88" as="geometry" />
        </mxCell>
        <mxCell id="f7bFWwlUYKXwFlwvoRpv-34" style="edgeStyle=orthogonalEdgeStyle;rounded=0;orthogonalLoop=1;jettySize=auto;html=1;exitX=0.5;exitY=1;exitDx=0;exitDy=0;" edge="1" parent="1" source="f7bFWwlUYKXwFlwvoRpv-8" target="f7bFWwlUYKXwFlwvoRpv-13">
          <mxGeometry relative="1" as="geometry" />
        </mxCell>
        <mxCell id="f7bFWwlUYKXwFlwvoRpv-8" value="RETURN num_hours, wholesale_cost" style="shape=parallelogram;perimeter=parallelogramPerimeter;whiteSpace=wrap;html=1;fixedSize=1;" vertex="1" parent="1">
          <mxGeometry x="238" y="770" width="152" height="78" as="geometry" />
        </mxCell>
        <mxCell id="f7bFWwlUYKXwFlwvoRpv-9" value="DECLARE num_hours AS INTEGER&lt;div&gt;DECLARE wholesale_cost AS FLOAT&lt;/div&gt;" style="rounded=0;whiteSpace=wrap;html=1;" vertex="1" parent="1">
          <mxGeometry x="218" y="370" width="154" height="80" as="geometry" />
        </mxCell>
        <mxCell id="f7bFWwlUYKXwFlwvoRpv-13" value="END FUNCTION" style="rounded=0;whiteSpace=wrap;html=1;" vertex="1" parent="1">
          <mxGeometry x="190" y="900" width="120" height="60" as="geometry" />
        </mxCell>
        <mxCell id="f7bFWwlUYKXwFlwvoRpv-26" style="edgeStyle=orthogonalEdgeStyle;rounded=0;orthogonalLoop=1;jettySize=auto;html=1;exitX=0.5;exitY=1;exitDx=0;exitDy=0;entryX=0.5;entryY=0;entryDx=0;entryDy=0;" edge="1" parent="1" source="f7bFWwlUYKXwFlwvoRpv-15" target="f7bFWwlUYKXwFlwvoRpv-17">
          <mxGeometry relative="1" as="geometry" />
        </mxCell>
        <mxCell id="f7bFWwlUYKXwFlwvoRpv-15" value="DECLARE labor_cost_per_hour AS INTEGER = 30&lt;div&gt;DECLARE material_markup_percentage AS FLOAT = 1.2&lt;/div&gt;" style="rounded=0;whiteSpace=wrap;html=1;" vertex="1" parent="1">
          <mxGeometry x="280" y="1149" width="240" height="120" as="geometry" />
        </mxCell>
        <mxCell id="f7bFWwlUYKXwFlwvoRpv-25" value="indent" style="edgeStyle=orthogonalEdgeStyle;rounded=0;orthogonalLoop=1;jettySize=auto;html=1;exitX=0.5;exitY=1;exitDx=0;exitDy=0;entryX=0.5;entryY=0;entryDx=0;entryDy=0;" edge="1" parent="1" source="f7bFWwlUYKXwFlwvoRpv-16" target="f7bFWwlUYKXwFlwvoRpv-15">
          <mxGeometry relative="1" as="geometry" />
        </mxCell>
        <mxCell id="f7bFWwlUYKXwFlwvoRpv-16" value="FUNCTION CalculateCosts(num_hours, wholesale_cost)&amp;nbsp;" style="rounded=0;whiteSpace=wrap;html=1;" vertex="1" parent="1">
          <mxGeometry x="200" y="1000" width="250" height="90" as="geometry" />
        </mxCell>
        <mxCell id="f7bFWwlUYKXwFlwvoRpv-27" style="edgeStyle=orthogonalEdgeStyle;rounded=0;orthogonalLoop=1;jettySize=auto;html=1;exitX=0.5;exitY=1;exitDx=0;exitDy=0;entryX=0.5;entryY=0;entryDx=0;entryDy=0;" edge="1" parent="1" source="f7bFWwlUYKXwFlwvoRpv-17" target="f7bFWwlUYKXwFlwvoRpv-22">
          <mxGeometry relative="1" as="geometry" />
        </mxCell>
        <mxCell id="f7bFWwlUYKXwFlwvoRpv-17" value="DECLARE labor_cost AS FLOAT = num_hours * labor_cost_per_hour&lt;div&gt;DECLARE material_cost AS FLOAT = wholesale_cost * material_markup_percentage&lt;/div&gt;&lt;div&gt;DECLARE total_cost AS FLOAT = labor_cost _ + material_cost&lt;/div&gt;" style="rounded=0;whiteSpace=wrap;html=1;" vertex="1" parent="1">
          <mxGeometry x="280" y="1370" width="240" height="120" as="geometry" />
        </mxCell>
        <mxCell id="f7bFWwlUYKXwFlwvoRpv-29" style="edgeStyle=orthogonalEdgeStyle;rounded=0;orthogonalLoop=1;jettySize=auto;html=1;exitX=0.5;exitY=1;exitDx=0;exitDy=0;" edge="1" parent="1" source="f7bFWwlUYKXwFlwvoRpv-21">
          <mxGeometry relative="1" as="geometry">
            <mxPoint x="250" y="1790" as="targetPoint" />
          </mxGeometry>
        </mxCell>
        <mxCell id="f7bFWwlUYKXwFlwvoRpv-21" value="END FUNCTION" style="rounded=0;whiteSpace=wrap;html=1;" vertex="1" parent="1">
          <mxGeometry x="190" y="1670" width="120" height="60" as="geometry" />
        </mxCell>
        <mxCell id="f7bFWwlUYKXwFlwvoRpv-28" style="edgeStyle=orthogonalEdgeStyle;rounded=0;orthogonalLoop=1;jettySize=auto;html=1;exitX=0.5;exitY=1;exitDx=0;exitDy=0;entryX=0.5;entryY=0;entryDx=0;entryDy=0;" edge="1" parent="1" source="f7bFWwlUYKXwFlwvoRpv-22" target="f7bFWwlUYKXwFlwvoRpv-21">
          <mxGeometry relative="1" as="geometry" />
        </mxCell>
        <mxCell id="f7bFWwlUYKXwFlwvoRpv-22" value="RETURN labor_cost, material_cost, total_cost" style="rounded=0;whiteSpace=wrap;html=1;" vertex="1" parent="1">
          <mxGeometry x="270" y="1560" width="260" height="80" as="geometry" />
        </mxCell>
        <mxCell id="f7bFWwlUYKXwFlwvoRpv-23" value="FUNCTION DisplayResults(num_hours, wholesale_cost, labor_cost, material_cost, total_cost)" style="rounded=0;whiteSpace=wrap;html=1;" vertex="1" parent="1">
          <mxGeometry x="190" y="1800" width="430" height="130" as="geometry" />
        </mxCell>
        <mxCell id="f7bFWwlUYKXwFlwvoRpv-32" style="edgeStyle=orthogonalEdgeStyle;rounded=0;orthogonalLoop=1;jettySize=auto;html=1;exitX=0.5;exitY=1;exitDx=0;exitDy=0;entryX=0.5;entryY=0;entryDx=0;entryDy=0;" edge="1" parent="1" source="f7bFWwlUYKXwFlwvoRpv-24" target="f7bFWwlUYKXwFlwvoRpv-31">
          <mxGeometry relative="1" as="geometry" />
        </mxCell>
        <mxCell id="f7bFWwlUYKXwFlwvoRpv-24" value="PRINT &quot;Projected Hours: &quot; + num_hours&lt;div&gt;PRINT &quot;Wholesale Cost of Materials: $&quot; + wholesale_cost&lt;/div&gt;&lt;div&gt;PRINT &quot;Total Labor Cost: $&quot; + labor_cost&lt;/div&gt;&lt;div&gt;PRINT &quot;Total Material Cost: $&quot; + material_cost&lt;/div&gt;&lt;div&gt;PRINT &quot;Total Project Cost: $&quot; + total_cost&lt;/div&gt;&lt;div&gt;PRINT &quot;End of program.&quot;&lt;/div&gt;" style="shape=parallelogram;perimeter=parallelogramPerimeter;whiteSpace=wrap;html=1;fixedSize=1;" vertex="1" parent="1">
          <mxGeometry x="301" y="1990" width="309" height="170" as="geometry" />
        </mxCell>
        <mxCell id="f7bFWwlUYKXwFlwvoRpv-30" value="indent" style="edgeStyle=orthogonalEdgeStyle;rounded=0;orthogonalLoop=1;jettySize=auto;html=1;exitX=0.5;exitY=1;exitDx=0;exitDy=0;entryX=0.633;entryY=0.009;entryDx=0;entryDy=0;entryPerimeter=0;" edge="1" parent="1" source="f7bFWwlUYKXwFlwvoRpv-23" target="f7bFWwlUYKXwFlwvoRpv-24">
          <mxGeometry relative="1" as="geometry" />
        </mxCell>
        <mxCell id="f7bFWwlUYKXwFlwvoRpv-48" style="edgeStyle=orthogonalEdgeStyle;rounded=0;orthogonalLoop=1;jettySize=auto;html=1;exitX=0.5;exitY=1;exitDx=0;exitDy=0;entryX=0.5;entryY=0;entryDx=0;entryDy=0;" edge="1" parent="1" source="f7bFWwlUYKXwFlwvoRpv-31" target="f7bFWwlUYKXwFlwvoRpv-37">
          <mxGeometry relative="1" as="geometry" />
        </mxCell>
        <mxCell id="f7bFWwlUYKXwFlwvoRpv-31" value="END FUNCTION" style="rounded=0;whiteSpace=wrap;html=1;" vertex="1" parent="1">
          <mxGeometry x="200" y="2260" width="120" height="60" as="geometry" />
        </mxCell>
        <mxCell id="f7bFWwlUYKXwFlwvoRpv-33" style="edgeStyle=orthogonalEdgeStyle;rounded=0;orthogonalLoop=1;jettySize=auto;html=1;exitX=0.5;exitY=1;exitDx=0;exitDy=0;entryX=0.228;entryY=-0.033;entryDx=0;entryDy=0;entryPerimeter=0;" edge="1" parent="1" source="f7bFWwlUYKXwFlwvoRpv-13" target="f7bFWwlUYKXwFlwvoRpv-16">
          <mxGeometry relative="1" as="geometry" />
        </mxCell>
        <mxCell id="f7bFWwlUYKXwFlwvoRpv-40" value="indent" style="edgeStyle=orthogonalEdgeStyle;rounded=0;orthogonalLoop=1;jettySize=auto;html=1;exitX=0.5;exitY=1;exitDx=0;exitDy=0;entryX=0.5;entryY=0;entryDx=0;entryDy=0;" edge="1" parent="1" source="f7bFWwlUYKXwFlwvoRpv-37" target="f7bFWwlUYKXwFlwvoRpv-39">
          <mxGeometry relative="1" as="geometry" />
        </mxCell>
        <mxCell id="f7bFWwlUYKXwFlwvoRpv-37" value="FUNCTION EndProgram()" style="rounded=0;whiteSpace=wrap;html=1;" vertex="1" parent="1">
          <mxGeometry x="200" y="2380" width="120" height="60" as="geometry" />
        </mxCell>
        <mxCell id="f7bFWwlUYKXwFlwvoRpv-42" style="edgeStyle=orthogonalEdgeStyle;rounded=0;orthogonalLoop=1;jettySize=auto;html=1;exitX=0.5;exitY=1;exitDx=0;exitDy=0;entryX=0.5;entryY=0;entryDx=0;entryDy=0;" edge="1" parent="1" source="f7bFWwlUYKXwFlwvoRpv-39" target="f7bFWwlUYKXwFlwvoRpv-41">
          <mxGeometry relative="1" as="geometry" />
        </mxCell>
        <mxCell id="f7bFWwlUYKXwFlwvoRpv-39" value="PRINT &quot;Thank you for using the remodeling cost estimator.&quot;" style="shape=parallelogram;perimeter=parallelogramPerimeter;whiteSpace=wrap;html=1;fixedSize=1;" vertex="1" parent="1">
          <mxGeometry x="254" y="2500" width="206" height="120" as="geometry" />
        </mxCell>
        <mxCell id="f7bFWwlUYKXwFlwvoRpv-47" style="edgeStyle=orthogonalEdgeStyle;rounded=0;orthogonalLoop=1;jettySize=auto;html=1;exitX=0.5;exitY=1;exitDx=0;exitDy=0;entryX=0.5;entryY=0;entryDx=0;entryDy=0;" edge="1" parent="1" source="f7bFWwlUYKXwFlwvoRpv-41" target="f7bFWwlUYKXwFlwvoRpv-43">
          <mxGeometry relative="1" as="geometry" />
        </mxCell>
        <mxCell id="f7bFWwlUYKXwFlwvoRpv-41" value="END FUNCTION" style="rounded=0;whiteSpace=wrap;html=1;" vertex="1" parent="1">
          <mxGeometry x="210" y="2670" width="120" height="60" as="geometry" />
        </mxCell>
        <mxCell id="f7bFWwlUYKXwFlwvoRpv-46" style="edgeStyle=orthogonalEdgeStyle;rounded=0;orthogonalLoop=1;jettySize=auto;html=1;exitX=0.5;exitY=1;exitDx=0;exitDy=0;" edge="1" parent="1" source="f7bFWwlUYKXwFlwvoRpv-43" target="f7bFWwlUYKXwFlwvoRpv-45">
          <mxGeometry relative="1" as="geometry" />
        </mxCell>
        <mxCell id="f7bFWwlUYKXwFlwvoRpv-43" value="num_hours, wholesale_cost = CollectInput()&lt;div&gt;labor_cost, material_cost, total_cost = CalculateCosts(num_hours, wholesale_cost)&lt;/div&gt;&lt;div&gt;DisplayResults(num_hours, wholesale_cost, labor_cost, material_cost, total_cost)&lt;/div&gt;" style="rounded=0;whiteSpace=wrap;html=1;" vertex="1" parent="1">
          <mxGeometry x="210" y="2790" width="370" height="180" as="geometry" />
        </mxCell>
        <mxCell id="f7bFWwlUYKXwFlwvoRpv-45" value="END" style="ellipse;whiteSpace=wrap;html=1;" vertex="1" parent="1">
          <mxGeometry x="218" y="3060" width="120" height="80" as="geometry" />
        </mxCell>
      </root>
    </mxGraphModel>
  </diagram>
</mxfile>
